<svg data-v-d3f97b9e="" xmlns="http://www.w3.org/2000/svg" viewBox="0 0 591 90"><!----><!----><!----><g data-v-d3f97b9e="" id="5382935c-a08c-42e5-967c-c3fb1e15d397" fill="#EFB8D2" transform="matrix(5.5744812701347035,0,0,5.5744812701347035,110.28730731889965,-3.2099732525955957)"><path d="M7.91 6.08L7.91 6.08L7.91 6.08Q7.91 6.47 7.79 6.87L7.79 6.87L7.79 6.87Q7.66 7.27 7.43 7.64L7.43 7.64L7.43 7.64Q7.19 8.00 6.86 8.33L6.86 8.33L6.86 8.33Q6.53 8.66 6.12 8.91L6.12 8.91L6.12 8.91Q5.71 9.16 5.24 9.32L5.24 9.32L5.24 9.32Q4.77 9.47 4.26 9.51L4.26 9.51L4.26 9.51Q4.16 9.52 4.07 9.51L4.07 9.51L4.07 9.51Q3.98 9.49 3.90 9.47L3.90 9.47L3.90 9.47Q3.85 9.45 3.75 9.41L3.75 9.41L3.75 9.41Q3.65 9.37 3.62 9.34L3.62 9.34L3.62 9.34Q3.58 9.30 3.51 9.22L3.51 9.22L3.51 9.22Q3.44 9.13 3.40 9.08L3.40 9.08L3.40 9.08Q3.38 9.04 3.39 8.97L3.39 8.97L3.39 8.97Q3.39 8.89 3.39 8.78L3.39 8.78L3.39 8.78Q3.39 8.69 3.39 8.58L3.39 8.58L3.39 8.58Q3.38 8.48 3.40 8.46L3.40 8.46L3.40 8.46Q3.42 8.45 3.47 8.49L3.47 8.49L3.47 8.49Q3.52 8.52 3.67 8.54L3.67 8.54L3.67 8.54Q3.73 8.56 3.81 8.55L3.81 8.55L3.81 8.55Q3.89 8.54 3.96 8.53L3.96 8.53L3.96 8.53Q4.20 8.51 4.52 8.39L4.52 8.39L4.52 8.39Q4.83 8.28 5.16 8.09L5.16 8.09L5.16 8.09Q5.50 7.90 5.82 7.64L5.82 7.64L5.82 7.64Q6.14 7.38 6.39 7.09L6.39 7.09L6.39 7.09Q6.64 6.79 6.79 6.47L6.79 6.47L6.79 6.47Q6.95 6.14 6.95 5.80L6.95 5.80L6.95 5.80Q6.95 5.54 6.84 5.30L6.84 5.30L6.84 5.30Q6.74 5.06 6.52 4.82L6.52 4.82L6.52 4.82Q6.38 4.66 5.99 4.57L5.99 4.57L5.99 4.57Q5.59 4.48 5.04 4.48L5.04 4.48L5.04 4.48Q4.57 4.48 4.03 4.56L4.03 4.56L4.03 4.56Q3.49 4.63 2.95 4.81L2.95 4.81L2.95 4.81Q2.50 4.96 2.17 5.07L2.17 5.07L2.17 5.07Q1.85 5.18 1.62 5.27L1.62 5.27L1.62 5.27Q1.39 5.36 1.25 5.42L1.25 5.42L1.25 5.42Q1.10 5.48 0.99 5.53L0.99 5.53L0.99 5.53Q0.88 5.57 0.79 5.61L0.79 5.61L0.79 5.61Q0.70 5.65 0.60 5.67L0.60 5.67L0.60 5.67Q0.51 5.71 0.45 5.71L0.45 5.71L0.45 5.71Q0.40 5.71 0.36 5.71L0.36 5.71L0.36 5.71Q0.31 5.70 0.28 5.68L0.28 5.68L0.28 5.68Q0.26 5.67 0.23 5.65L0.23 5.65L0.23 5.65Q0.20 5.63 0.17 5.63L0.17 5.63L0.17 5.63Q0.14 5.63 0.12 5.64L0.12 5.64L0.12 5.64Q0.10 5.65 0.07 5.64L0.07 5.64L0.07 5.64Q0.04 5.63 0.01 5.59L0.01 5.59L0.01 5.59Q-0.03 5.52-0.04 5.47L-0.04 5.47L-0.04 5.47Q-0.06 5.43-0.06 5.40L-0.06 5.40L-0.06 5.40Q-0.07 5.37-0.06 5.34L-0.06 5.34L-0.06 5.34Q-0.05 5.31-0.04 5.27L-0.04 5.27L-0.04 5.27Q-0.03 5.23-0.04 5.20L-0.04 5.20L-0.04 5.20Q-0.05 5.16-0.05 5.13L-0.05 5.13L-0.05 5.13Q-0.05 5.11-0.04 5.08L-0.04 5.08L-0.04 5.08Q-0.03 5.04 0.01 5.00L0.01 5.00L0.01 5.00Q0.11 4.93 0.33 4.77L0.33 4.77L0.33 4.77Q0.55 4.61 0.87 4.43L0.87 4.43L0.87 4.43Q1.20 4.24 1.62 4.04L1.62 4.04L1.62 4.04Q2.04 3.84 2.53 3.67L2.53 3.67L2.53 3.67Q3.03 3.51 3.59 3.39L3.59 3.39L3.59 3.39Q4.16 3.28 4.77 3.27L4.77 3.27L4.77 3.27Q5.39 3.25 5.85 3.40L5.85 3.40L5.85 3.40Q6.32 3.55 6.67 3.79L6.67 3.79L6.67 3.79Q7.02 4.03 7.26 4.34L7.26 4.34L7.26 4.34Q7.49 4.66 7.64 4.97L7.64 4.97L7.64 4.97Q7.78 5.28 7.84 5.58L7.84 5.58L7.84 5.58Q7.90 5.87 7.91 6.08ZM3.22 5.17L3.22 5.17L3.22 5.17Q3.21 5.20 3.20 5.40L3.20 5.40L3.20 5.40Q3.18 5.60 3.15 5.91L3.15 5.91L3.15 5.91Q3.13 6.22 3.10 6.62L3.10 6.62L3.10 6.62Q3.08 7.01 3.05 7.44L3.05 7.44L3.05 7.44Q3.02 7.88 3.00 8.32L3.00 8.32L3.00 8.32Q2.97 8.76 2.97 9.16L2.97 9.16L2.97 9.16Q2.95 9.57 2.95 10.00L2.95 10.00L2.95 10.00Q2.94 10.44 2.94 10.88L2.94 10.88L2.94 10.88Q2.94 11.40 2.96 11.89L2.96 11.89L2.96 11.89Q2.99 12.39 3.05 12.86L3.05 12.86L3.05 12.86Q3.08 13.02 3.03 13.10L3.03 13.10L3.03 13.10Q2.98 13.19 2.98 13.26L2.98 13.26L2.98 13.26Q2.98 13.28 3.00 13.30L3.00 13.30L3.00 13.30Q3.02 13.32 3.01 13.33L3.01 13.33L3.01 13.33Q2.99 13.36 2.94 13.36L2.94 13.36L2.94 13.36Q2.88 13.35 2.84 13.32L2.84 13.32L2.84 13.32Q2.82 13.30 2.81 13.27L2.81 13.27L2.81 13.27Q2.80 13.23 2.78 13.21L2.78 13.21L2.78 13.21Q2.77 13.19 2.75 13.19L2.75 13.19L2.75 13.19Q2.73 13.19 2.69 13.22L2.69 13.22L2.69 13.22Q2.65 13.25 2.61 13.32L2.61 13.32L2.61 13.32Q2.56 13.38 2.52 13.44L2.52 13.44L2.52 13.44Q2.47 13.51 2.42 13.56L2.42 13.56L2.42 13.56Q2.37 13.61 2.32 13.62L2.32 13.62L2.32 13.62Q2.28 13.64 2.23 13.65L2.23 13.65L2.23 13.65Q2.17 13.67 2.15 13.61L2.15 13.61L2.15 13.61Q2.14 13.58 2.13 13.58L2.13 13.58L2.13 13.58Q2.11 13.57 2.09 13.56L2.09 13.56L2.09 13.56Q2.07 13.55 2.05 13.53L2.05 13.53L2.05 13.53Q2.04 13.51 2.03 13.46L2.03 13.46L2.03 13.46Q2.00 13.34 1.95 13.29L1.95 13.29L1.95 13.29Q1.91 13.23 1.91 13.15L1.91 13.15L1.91 13.15Q1.89 13.04 1.84 12.48L1.84 12.48L1.84 12.48Q1.79 11.93 1.79 10.95L1.79 10.95L1.79 10.95Q1.79 10.56 1.80 10.10L1.80 10.10L1.80 10.10Q1.81 9.65 1.85 9.13L1.85 9.13L1.85 9.13Q1.88 8.67 1.93 8.14L1.93 8.14L1.93 8.14Q1.98 7.61 2.03 7.10L2.03 7.10L2.03 7.10Q2.08 6.58 2.12 6.14L2.12 6.14L2.12 6.14Q2.16 5.69 2.18 5.41L2.18 5.41L2.18 5.41Q2.19 5.36 2.21 5.35L2.21 5.35L2.21 5.35Q2.24 5.33 2.29 5.33L2.29 5.33L2.29 5.33Q2.34 5.32 2.41 5.31L2.41 5.31L2.41 5.31Q2.49 5.30 2.59 5.26L2.59 5.26L2.59 5.26Q2.67 5.22 2.79 5.17L2.79 5.17L2.79 5.17Q2.90 5.13 3.00 5.11L3.00 5.11L3.00 5.11Q3.10 5.09 3.16 5.09L3.16 5.09L3.16 5.09Q3.23 5.10 3.22 5.17ZM11.59 9.50L11.59 9.50L11.59 9.50Q11.60 9.73 11.55 10.08L11.55 10.08L11.55 10.08Q11.50 10.42 11.44 10.82L11.44 10.82L11.44 10.82Q11.38 11.21 11.33 11.62L11.33 11.62L11.33 11.62Q11.27 12.03 11.27 12.39L11.27 12.39L11.27 12.39Q11.27 12.63 11.31 12.85L11.31 12.85L11.31 12.85Q11.34 13.06 11.42 13.22L11.42 13.22L11.42 13.22Q11.47 13.31 11.47 13.38L11.47 13.38L11.47 13.38Q11.48 13.45 11.46 13.50L11.46 13.50L11.46 13.50Q11.45 13.55 11.44 13.59L11.44 13.59L11.44 13.59Q11.42 13.62 11.44 13.66L11.44 13.66L11.44 13.66Q11.45 13.69 11.43 13.74L11.43 13.74L11.43 13.74Q11.41 13.78 11.37 13.82L11.37 13.82L11.37 13.82Q11.33 13.86 11.28 13.87L11.28 13.87L11.28 13.87Q11.22 13.89 11.18 13.86L11.18 13.86L11.18 13.86Q11.11 13.82 11.06 13.81L11.06 13.81L11.06 13.81Q11.02 13.80 10.99 13.81L10.99 13.81L10.99 13.81Q10.96 13.82 10.93 13.84L10.93 13.84L10.93 13.84Q10.91 13.85 10.88 13.84L10.88 13.84L10.88 13.84Q10.76 13.77 10.62 13.69L10.62 13.69L10.62 13.69Q10.49 13.61 10.45 13.51L10.45 13.51L10.45 13.51Q10.42 13.47 10.39 13.38L10.39 13.38L10.39 13.38Q10.37 13.28 10.35 13.15L10.35 13.15L10.35 13.15Q10.34 13.02 10.32 12.87L10.32 12.87L10.32 12.87Q10.31 12.72 10.30 12.58L10.30 12.58L10.30 12.58Q10.08 13.00 9.82 13.28L9.82 13.28L9.82 13.28Q9.56 13.56 9.31 13.73L9.31 13.73L9.31 13.73Q9.05 13.90 8.80 13.97L8.80 13.97L8.80 13.97Q8.55 14.03 8.35 14.03L8.35 14.03L8.35 14.03Q8.13 14.03 7.97 13.98L7.97 13.98L7.97 13.98Q7.81 13.92 7.72 13.85L7.72 13.85L7.72 13.85Q7.39 13.51 7.25 13.31L7.25 13.31L7.25 13.31Q7.11 13.10 7.12 12.97L7.12 12.97L7.12 12.97Q7.16 12.53 7.33 12.16L7.33 12.16L7.33 12.16Q7.51 11.79 7.78 11.48L7.78 11.48L7.78 11.48Q8.05 11.17 8.38 10.92L8.38 10.92L8.38 10.92Q8.71 10.67 9.05 10.48L9.05 10.48L9.05 10.48Q9.40 10.28 9.73 10.15L9.73 10.15L9.73 10.15Q10.07 10.01 10.34 9.93L10.34 9.93L10.34 9.93Q10.33 9.56 10.31 9.29L10.31 9.29L10.31 9.29Q10.29 9.01 10.26 8.88L10.26 8.88L10.26 8.88Q10.16 8.46 9.95 8.25L9.95 8.25L9.95 8.25Q9.73 8.04 9.43 8.04L9.43 8.04L9.43 8.04Q9.24 8.04 9.05 8.18L9.05 8.18L9.05 8.18Q8.85 8.33 8.70 8.57L8.70 8.57L8.70 8.57Q8.54 8.82 8.44 9.14L8.44 9.14L8.44 9.14Q8.34 9.46 8.33 9.82L8.33 9.82L8.33 9.82Q8.33 9.91 8.34 9.99L8.34 9.99L8.34 9.99Q8.35 10.07 8.36 10.16L8.36 10.16L8.36 10.16Q8.37 10.21 8.33 10.23L8.33 10.23L8.33 10.23Q8.29 10.25 8.24 10.26L8.24 10.26L8.24 10.26Q8.18 10.27 8.12 10.27L8.12 10.27L8.12 10.27Q8.06 10.28 8.02 10.29L8.02 10.29L8.02 10.29Q7.98 10.31 7.96 10.31L7.96 10.31L7.96 10.31Q7.94 10.32 7.92 10.31L7.92 10.31L7.92 10.31Q7.90 10.29 7.87 10.27L7.87 10.27L7.87 10.27Q7.84 10.24 7.79 10.20L7.79 10.20L7.79 10.20Q7.73 10.16 7.67 10.13L7.67 10.13L7.67 10.13Q7.62 10.10 7.57 10.08L7.57 10.08L7.57 10.08Q7.53 10.06 7.50 10.05L7.50 10.05L7.50 10.05Q7.46 10.03 7.46 10.00L7.46 10.00L7.46 10.00Q7.46 9.58 7.65 9.13L7.65 9.13L7.65 9.13Q7.84 8.67 8.16 8.30L8.16 8.30L8.16 8.30Q8.48 7.93 8.90 7.69L8.90 7.69L8.90 7.69Q9.32 7.45 9.79 7.45L9.79 7.45L9.79 7.45Q10.17 7.45 10.45 7.57L10.45 7.57L10.45 7.57Q10.73 7.68 10.93 7.87L10.93 7.87L10.93 7.87Q11.13 8.05 11.26 8.28L11.26 8.28L11.26 8.28Q11.38 8.50 11.45 8.73L11.45 8.73L11.45 8.73Q11.53 8.96 11.56 9.16L11.56 9.16L11.56 9.16Q11.59 9.37 11.59 9.50ZM10.36 11.39L10.36 10.71L10.36 10.71Q10.15 10.79 9.91 10.91L9.91 10.91L9.91 10.91Q9.66 11.03 9.41 11.20L9.41 11.20L9.41 11.20Q9.15 11.37 8.90 11.59L8.90 11.59L8.90 11.59Q8.65 11.81 8.43 12.07L8.43 12.07L8.43 12.07Q8.17 12.38 8.05 12.62L8.05 12.62L8.05 12.62Q7.94 12.86 7.91 13.03L7.91 13.03L7.91 13.03Q7.88 13.19 7.92 13.29L7.92 13.29L7.92 13.29Q7.96 13.38 8.02 13.41L8.02 13.41L8.02 13.41Q8.23 13.49 8.46 13.42L8.46 13.42L8.46 13.42Q8.69 13.36 8.92 13.19L8.92 13.19L8.92 13.19Q9.15 13.02 9.36 12.79L9.36 12.79L9.36 12.79Q9.58 12.55 9.77 12.30L9.77 12.30L9.77 12.30Q9.96 12.05 10.11 11.81L10.11 11.81L10.11 11.81Q10.26 11.57 10.36 11.39L10.36 11.39ZM14.05 4.38L14.05 4.38L14.05 4.38Q14.05 4.47 14.04 4.75L14.04 4.75L14.04 4.75Q14.03 5.03 14.01 5.42L14.01 5.42L14.01 5.42Q13.99 5.82 13.96 6.29L13.96 6.29L13.96 6.29Q13.94 6.75 13.91 7.22L13.91 7.22L13.91 7.22Q13.88 7.69 13.86 8.13L13.86 8.13L13.86 8.13Q13.84 8.57 13.84 8.89L13.84 8.89L13.84 8.89Q13.82 9.09 13.82 9.33L13.82 9.33L13.82 9.33Q13.82 9.57 13.82 9.84L13.82 9.84L13.82 9.84Q13.82 10.21 13.82 10.60L13.82 10.60L13.82 10.60Q13.82 10.99 13.83 11.38L13.83 11.38L13.83 11.38Q13.84 11.76 13.85 12.11L13.85 12.11L13.85 12.11Q13.86 12.46 13.86 12.74L13.86 12.74L13.86 12.74Q13.87 13.02 13.87 13.21L13.87 13.21L13.87 13.21Q13.88 13.40 13.88 13.45L13.88 13.45L13.88 13.45Q13.88 13.54 13.85 13.59L13.85 13.59L13.85 13.59Q13.82 13.64 13.77 13.66L13.77 13.66L13.77 13.66Q13.73 13.68 13.68 13.67L13.68 13.67L13.68 13.67Q13.63 13.66 13.60 13.64L13.60 13.64L13.60 13.64Q13.56 13.62 13.53 13.59L13.53 13.59L13.53 13.59Q13.51 13.56 13.49 13.55L13.49 13.55L13.49 13.55Q13.48 13.54 13.47 13.54L13.47 13.54L13.47 13.54Q13.46 13.55 13.45 13.60L13.45 13.60L13.45 13.60Q13.43 13.77 13.37 13.86L13.37 13.86L13.37 13.86Q13.32 13.95 13.25 13.98L13.25 13.98L13.25 13.98Q13.19 14.01 13.13 14L13.13 14L13.13 14Q13.08 13.99 13.06 13.95L13.06 13.95L13.06 13.95Q13.05 13.92 13.02 13.91L13.02 13.91L13.02 13.91Q12.99 13.90 12.95 13.90L12.95 13.90L12.95 13.90Q12.92 13.90 12.89 13.88L12.89 13.88L12.89 13.88Q12.86 13.86 12.85 13.81L12.85 13.81L12.85 13.81Q12.80 13.58 12.78 13.22L12.78 13.22L12.78 13.22Q12.77 12.86 12.77 12.41L12.77 12.41L12.77 12.41Q12.77 12.02 12.78 11.57L12.78 11.57L12.78 11.57Q12.78 11.12 12.78 10.64L12.78 10.64L12.78 10.64Q12.78 10.37 12.78 10.10L12.78 10.10L12.78 10.10Q12.78 9.83 12.77 9.55L12.77 9.55L12.77 9.12L12.77 9.12Q12.77 8.57 12.80 8.01L12.80 8.01L12.80 8.01Q12.82 7.45 12.87 6.94L12.87 6.94L12.87 6.94Q12.91 6.43 12.95 5.97L12.95 5.97L12.95 5.97Q13.00 5.52 13.04 5.17L13.04 5.17L13.04 5.17Q13.07 4.83 13.09 4.61L13.09 4.61L13.09 4.61Q13.11 4.39 13.10 4.33L13.10 4.33L13.10 4.33Q13.10 4.29 13.11 4.27L13.11 4.27L13.11 4.27Q13.13 4.25 13.16 4.24L13.16 4.24L13.16 4.24Q13.19 4.24 13.23 4.23L13.23 4.23L13.23 4.23Q13.26 4.23 13.29 4.22L13.29 4.22L13.29 4.22Q13.34 4.19 13.37 4.20L13.37 4.20L13.37 4.20Q13.40 4.21 13.42 4.23L13.42 4.23L13.42 4.23Q13.44 4.25 13.46 4.28L13.46 4.28L13.46 4.28Q13.47 4.30 13.51 4.30L13.51 4.30L13.51 4.30Q13.55 4.29 13.57 4.28L13.57 4.28L13.57 4.28Q13.60 4.26 13.61 4.24L13.61 4.24L13.61 4.24Q13.63 4.22 13.65 4.21L13.65 4.21L13.65 4.21Q13.67 4.20 13.69 4.20L13.69 4.20L13.69 4.20Q13.75 4.22 13.80 4.22L13.80 4.22L13.80 4.22Q13.85 4.22 13.85 4.20L13.85 4.20L13.85 4.20Q13.86 4.15 13.89 4.15L13.89 4.15L13.89 4.15Q13.92 4.16 13.96 4.19L13.96 4.19L13.96 4.19Q14 4.22 14.03 4.26L14.03 4.26L14.03 4.26Q14.05 4.30 14.05 4.38ZM19.53 11.01L19.53 11.01L19.53 11.01Q19.53 11.08 19.54 11.18L19.54 11.18L19.54 11.18Q19.54 11.29 19.54 11.42L19.54 11.42L19.54 11.42Q19.54 11.58 19.50 11.82L19.50 11.82L19.50 11.82Q19.45 12.07 19.34 12.33L19.34 12.33L19.34 12.33Q19.24 12.60 19.06 12.87L19.06 12.87L19.06 12.87Q18.88 13.13 18.62 13.34L18.62 13.34L18.62 13.34Q18.36 13.56 18.01 13.69L18.01 13.69L18.01 13.69Q17.66 13.82 17.21 13.82L17.21 13.82L17.21 13.82Q16.80 13.82 16.38 13.67L16.38 13.67L16.38 13.67Q15.96 13.51 15.62 13.19L15.62 13.19L15.62 13.19Q15.27 12.87 15.05 12.36L15.05 12.36L15.05 12.36Q14.83 11.86 14.83 11.16L14.83 11.16L14.83 11.16Q14.83 10.73 14.94 10.30L14.94 10.30L14.94 10.30Q15.05 9.88 15.24 9.50L15.24 9.50L15.24 9.50Q15.43 9.13 15.69 8.81L15.69 8.81L15.69 8.81Q15.94 8.49 16.23 8.26L16.23 8.26L16.23 8.26Q16.51 8.03 16.81 7.90L16.81 7.90L16.81 7.90Q17.12 7.77 17.40 7.77L17.40 7.77L17.40 7.77Q17.90 7.77 18.23 7.93L18.23 7.93L18.23 7.93Q18.55 8.09 18.74 8.32L18.74 8.32L18.74 8.32Q18.94 8.55 19.01 8.81L19.01 8.81L19.01 8.81Q19.09 9.08 19.09 9.29L19.09 9.29L19.09 9.29Q19.09 9.50 18.99 9.76L18.99 9.76L18.99 9.76Q18.89 10.02 18.67 10.26L18.67 10.26L18.67 10.26Q18.44 10.49 18.08 10.65L18.08 10.65L18.08 10.65Q17.72 10.81 17.19 10.81L17.19 10.81L17.19 10.81Q16.91 10.81 16.69 10.74L16.69 10.74L16.69 10.74Q16.47 10.66 16.30 10.54L16.30 10.54L16.30 10.54Q16.13 10.42 16.01 10.28L16.01 10.28L16.01 10.28Q15.89 10.14 15.80 10.01L15.80 10.01L15.80 10.01Q15.68 10.44 15.68 11.01L15.68 11.01L15.68 11.01Q15.68 11.40 15.79 11.71L15.79 11.71L15.79 11.71Q15.91 12.02 16.11 12.24L16.11 12.24L16.11 12.24Q16.30 12.46 16.58 12.57L16.58 12.57L16.58 12.57Q16.85 12.69 17.18 12.69L17.18 12.69L17.18 12.69Q17.59 12.69 17.90 12.55L17.90 12.55L17.90 12.55Q18.20 12.41 18.43 12.20L18.43 12.20L18.43 12.20Q18.66 11.98 18.83 11.73L18.83 11.73L18.83 11.73Q19.00 11.48 19.12 11.28L19.12 11.28L19.12 11.28Q19.24 11.07 19.34 10.93L19.34 10.93L19.34 10.93Q19.43 10.79 19.52 10.80L19.52 10.80L19.52 10.80Q19.56 10.80 19.56 10.87L19.56 10.87L19.56 10.87Q19.56 10.90 19.55 10.94L19.55 10.94L19.55 10.94Q19.54 10.97 19.53 11.01ZM17.47 8.46L17.47 8.46L17.47 8.46Q17.35 8.46 17.15 8.51L17.15 8.51L17.15 8.51Q16.96 8.57 16.74 8.70L16.74 8.70L16.74 8.70Q16.53 8.83 16.32 9.05L16.32 9.05L16.32 9.05Q16.11 9.27 15.95 9.61L15.95 9.61L15.95 9.61Q16.04 9.56 16.12 9.53L16.12 9.53L16.12 9.53Q16.19 9.50 16.21 9.50L16.21 9.50L16.21 9.50Q16.23 9.50 16.26 9.52L16.26 9.52L16.26 9.52Q16.41 9.79 16.65 9.90L16.65 9.90L16.65 9.90Q16.88 10.01 17.18 10.01L17.18 10.01L17.18 10.01Q17.41 10.01 17.58 9.94L17.58 9.94L17.58 9.94Q17.75 9.86 17.86 9.73L17.86 9.73L17.86 9.73Q17.96 9.61 18.01 9.46L18.01 9.46L18.01 9.46Q18.06 9.32 18.06 9.17L18.06 9.17L18.06 9.17Q18.06 8.87 17.90 8.66L17.90 8.66L17.90 8.66Q17.75 8.46 17.47 8.46ZM22.35 5.46L22.35 5.46L22.35 5.46Q22.35 5.50 22.34 5.68L22.34 5.68L22.34 5.68Q22.33 5.85 22.30 6.14L22.30 6.14L22.30 6.14Q22.28 6.43 22.24 6.81L22.24 6.81L22.24 6.81Q22.21 7.18 22.18 7.62L22.18 7.62L22.18 7.62Q22.61 7.57 22.99 7.54L22.99 7.54L22.99 7.54Q23.38 7.51 23.65 7.51L23.65 7.51L23.65 7.51Q23.73 7.51 23.80 7.54L23.80 7.54L23.80 7.54Q23.87 7.57 23.92 7.62L23.92 7.62L23.92 7.62Q23.96 7.66 23.99 7.71L23.99 7.71L23.99 7.71Q24.01 7.77 24.02 7.80L24.02 7.80L24.02 7.80Q24.02 7.83 24.03 7.86L24.03 7.86L24.03 7.86Q24.04 7.90 24.04 7.93L24.04 7.93L24.04 7.93Q24.04 8.07 23.92 8.20L23.92 8.20L23.92 8.20Q23.80 8.34 23.56 8.37L23.56 8.37L22.10 8.53L22.10 8.53Q22.07 9.02 22.04 9.54L22.04 9.54L22.04 9.54Q22.01 10.06 21.99 10.58L21.99 10.58L21.99 10.58Q21.96 11.09 21.95 11.59L21.95 11.59L21.95 11.59Q21.94 12.09 21.94 12.54L21.94 12.54L21.94 12.54Q21.94 12.82 21.95 13.00L21.95 13.00L21.95 13.00Q21.96 13.18 21.96 13.23L21.96 13.23L21.96 13.23Q21.96 13.35 21.92 13.46L21.92 13.46L21.92 13.46Q21.88 13.58 21.82 13.67L21.82 13.67L21.82 13.67Q21.76 13.76 21.69 13.82L21.69 13.82L21.69 13.82Q21.63 13.88 21.59 13.88L21.59 13.88L21.59 13.88Q21.34 13.88 21.20 13.72L21.20 13.72L21.20 13.72Q21.05 13.57 20.98 13.31L20.98 13.31L20.98 13.31Q20.91 13.05 20.89 12.71L20.89 12.71L20.89 12.71Q20.87 12.38 20.87 12.02L20.87 12.02L20.87 12.02Q20.87 11.16 20.92 10.31L20.92 10.31L20.92 10.31Q20.97 9.45 21.05 8.65L21.05 8.65L20.20 8.76L20.20 8.76Q20.18 8.76 20.16 8.76L20.16 8.76L20.16 8.76Q20.14 8.77 20.11 8.77L20.11 8.77L20.11 8.77Q19.98 8.77 19.90 8.71L19.90 8.71L19.90 8.71Q19.82 8.65 19.78 8.57L19.78 8.57L19.78 8.57Q19.74 8.48 19.73 8.40L19.73 8.40L19.73 8.40Q19.72 8.31 19.72 8.26L19.72 8.26L19.72 8.26Q19.72 8.17 19.75 8.09L19.75 8.09L19.75 8.09Q19.78 8.00 19.85 7.98L19.85 7.98L19.85 7.98Q20.00 7.93 20.35 7.86L20.35 7.86L20.35 7.86Q20.71 7.80 21.16 7.73L21.16 7.73L21.16 7.73Q21.24 7.18 21.32 6.72L21.32 6.72L21.32 6.72Q21.40 6.25 21.47 5.92L21.47 5.92L21.47 5.92Q21.55 5.58 21.61 5.39L21.61 5.39L21.61 5.39Q21.68 5.20 21.72 5.20L21.72 5.20L21.72 5.20Q21.74 5.20 21.76 5.21L21.76 5.21L21.76 5.21Q21.78 5.22 21.79 5.22L21.79 5.22L21.79 5.22Q21.83 5.22 21.86 5.17L21.86 5.17L21.86 5.17Q21.88 5.13 21.95 5.13L21.95 5.13L21.95 5.13Q22.01 5.13 22.08 5.16L22.08 5.16L22.08 5.16Q22.16 5.20 22.21 5.26L22.21 5.26L22.21 5.26Q22.27 5.31 22.31 5.37L22.31 5.37L22.31 5.37Q22.35 5.43 22.35 5.46ZM25.76 5.46L25.76 5.46L25.76 5.46Q25.76 5.50 25.74 5.68L25.74 5.68L25.74 5.68Q25.73 5.85 25.71 6.14L25.71 6.14L25.71 6.14Q25.68 6.43 25.65 6.81L25.65 6.81L25.65 6.81Q25.61 7.18 25.58 7.62L25.58 7.62L25.58 7.62Q26.01 7.57 26.40 7.54L26.40 7.54L26.40 7.54Q26.78 7.51 27.05 7.51L27.05 7.51L27.05 7.51Q27.14 7.51 27.21 7.54L27.21 7.54L27.21 7.54Q27.28 7.57 27.32 7.62L27.32 7.62L27.32 7.62Q27.36 7.66 27.39 7.71L27.39 7.71L27.39 7.71Q27.42 7.77 27.43 7.80L27.43 7.80L27.43 7.80Q27.43 7.83 27.43 7.86L27.43 7.86L27.43 7.86Q27.44 7.90 27.44 7.93L27.44 7.93L27.44 7.93Q27.44 8.07 27.32 8.20L27.32 8.20L27.32 8.20Q27.20 8.34 26.96 8.37L26.96 8.37L25.50 8.53L25.50 8.53Q25.47 9.02 25.44 9.54L25.44 9.54L25.44 9.54Q25.42 10.06 25.39 10.58L25.39 10.58L25.39 10.58Q25.37 11.09 25.35 11.59L25.35 11.59L25.35 11.59Q25.34 12.09 25.34 12.54L25.34 12.54L25.34 12.54Q25.34 12.82 25.35 13.00L25.35 13.00L25.35 13.00Q25.37 13.18 25.37 13.23L25.37 13.23L25.37 13.23Q25.37 13.35 25.32 13.46L25.32 13.46L25.32 13.46Q25.28 13.58 25.22 13.67L25.22 13.67L25.22 13.67Q25.16 13.76 25.10 13.82L25.10 13.82L25.10 13.82Q25.03 13.88 24.99 13.88L24.99 13.88L24.99 13.88Q24.75 13.88 24.60 13.72L24.60 13.72L24.60 13.72Q24.46 13.57 24.39 13.31L24.39 13.31L24.39 13.31Q24.32 13.05 24.29 12.71L24.29 12.71L24.29 12.71Q24.27 12.38 24.27 12.02L24.27 12.02L24.27 12.02Q24.27 11.16 24.32 10.31L24.32 10.31L24.32 10.31Q24.37 9.45 24.46 8.65L24.46 8.65L23.60 8.76L23.60 8.76Q23.58 8.76 23.56 8.76L23.56 8.76L23.56 8.76Q23.54 8.77 23.52 8.77L23.52 8.77L23.52 8.77Q23.39 8.77 23.31 8.71L23.31 8.71L23.31 8.71Q23.23 8.65 23.19 8.57L23.19 8.57L23.19 8.57Q23.15 8.48 23.14 8.40L23.14 8.40L23.14 8.40Q23.13 8.31 23.13 8.26L23.13 8.26L23.13 8.26Q23.13 8.17 23.15 8.09L23.15 8.09L23.15 8.09Q23.18 8.00 23.26 7.98L23.26 7.98L23.26 7.98Q23.40 7.93 23.76 7.86L23.76 7.86L23.76 7.86Q24.12 7.80 24.57 7.73L24.57 7.73L24.57 7.73Q24.64 7.18 24.72 6.72L24.72 6.72L24.72 6.72Q24.80 6.25 24.88 5.92L24.88 5.92L24.88 5.92Q24.95 5.58 25.02 5.39L25.02 5.39L25.02 5.39Q25.08 5.20 25.13 5.20L25.13 5.20L25.13 5.20Q25.14 5.20 25.16 5.21L25.16 5.21L25.16 5.21Q25.18 5.22 25.20 5.22L25.20 5.22L25.20 5.22Q25.24 5.22 25.26 5.17L25.26 5.17L25.26 5.17Q25.29 5.13 25.35 5.13L25.35 5.13L25.35 5.13Q25.42 5.13 25.49 5.16L25.49 5.16L25.49 5.16Q25.56 5.20 25.62 5.26L25.62 5.26L25.62 5.26Q25.68 5.31 25.72 5.37L25.72 5.37L25.72 5.37Q25.76 5.43 25.76 5.46ZM31.73 11.01L31.73 11.01L31.73 11.01Q31.73 11.08 31.73 11.18L31.73 11.18L31.73 11.18Q31.74 11.29 31.74 11.42L31.74 11.42L31.74 11.42Q31.74 11.58 31.69 11.82L31.69 11.82L31.69 11.82Q31.64 12.07 31.54 12.33L31.54 12.33L31.54 12.33Q31.43 12.60 31.25 12.87L31.25 12.87L31.25 12.87Q31.08 13.13 30.82 13.34L30.82 13.34L30.82 13.34Q30.56 13.56 30.20 13.69L30.20 13.69L30.20 13.69Q29.85 13.82 29.40 13.82L29.40 13.82L29.40 13.82Q29.00 13.82 28.58 13.67L28.58 13.67L28.58 13.67Q28.16 13.51 27.81 13.19L27.81 13.19L27.81 13.19Q27.47 12.87 27.24 12.36L27.24 12.36L27.24 12.36Q27.02 11.86 27.02 11.16L27.02 11.16L27.02 11.16Q27.02 10.73 27.14 10.30L27.14 10.30L27.14 10.30Q27.25 9.88 27.44 9.50L27.44 9.50L27.44 9.50Q27.62 9.13 27.88 8.81L27.88 8.81L27.88 8.81Q28.14 8.49 28.42 8.26L28.42 8.26L28.42 8.26Q28.70 8.03 29.01 7.90L29.01 7.90L29.01 7.90Q29.31 7.77 29.60 7.77L29.60 7.77L29.60 7.77Q30.10 7.77 30.42 7.93L30.42 7.93L30.42 7.93Q30.75 8.09 30.94 8.32L30.94 8.32L30.94 8.32Q31.13 8.55 31.21 8.81L31.21 8.81L31.21 8.81Q31.29 9.08 31.29 9.29L31.29 9.29L31.29 9.29Q31.29 9.50 31.19 9.76L31.19 9.76L31.19 9.76Q31.09 10.02 30.86 10.26L30.86 10.26L30.86 10.26Q30.64 10.49 30.28 10.65L30.28 10.65L30.28 10.65Q29.91 10.81 29.39 10.81L29.39 10.81L29.39 10.81Q29.11 10.81 28.89 10.74L28.89 10.74L28.89 10.74Q28.66 10.66 28.49 10.54L28.49 10.54L28.49 10.54Q28.32 10.42 28.20 10.28L28.20 10.28L28.20 10.28Q28.08 10.14 28 10.01L28 10.01L28 10.01Q27.88 10.44 27.88 11.01L27.88 11.01L27.88 11.01Q27.88 11.40 27.99 11.71L27.99 11.71L27.99 11.71Q28.10 12.02 28.30 12.24L28.30 12.24L28.30 12.24Q28.50 12.46 28.77 12.57L28.77 12.57L28.77 12.57Q29.05 12.69 29.37 12.69L29.37 12.69L29.37 12.69Q29.78 12.69 30.09 12.55L30.09 12.55L30.09 12.55Q30.40 12.41 30.63 12.20L30.63 12.20L30.63 12.20Q30.86 11.98 31.02 11.73L31.02 11.73L31.02 11.73Q31.19 11.48 31.32 11.28L31.32 11.28L31.32 11.28Q31.44 11.07 31.53 10.93L31.53 10.93L31.53 10.93Q31.62 10.79 31.71 10.80L31.71 10.80L31.71 10.80Q31.75 10.80 31.75 10.87L31.75 10.87L31.75 10.87Q31.75 10.90 31.75 10.94L31.75 10.94L31.75 10.94Q31.74 10.97 31.73 11.01ZM29.67 8.46L29.67 8.46L29.67 8.46Q29.54 8.46 29.35 8.51L29.35 8.51L29.35 8.51Q29.16 8.57 28.94 8.70L28.94 8.70L28.94 8.70Q28.72 8.83 28.51 9.05L28.51 9.05L28.51 9.05Q28.30 9.27 28.14 9.61L28.14 9.61L28.14 9.61Q28.24 9.56 28.31 9.53L28.31 9.53L28.31 9.53Q28.38 9.50 28.41 9.50L28.41 9.50L28.41 9.50Q28.42 9.50 28.45 9.52L28.45 9.52L28.45 9.52Q28.61 9.79 28.84 9.90L28.84 9.90L28.84 9.90Q29.08 10.01 29.37 10.01L29.37 10.01L29.37 10.01Q29.61 10.01 29.77 9.94L29.77 9.94L29.77 9.94Q29.94 9.86 30.05 9.73L30.05 9.73L30.05 9.73Q30.16 9.61 30.21 9.46L30.21 9.46L30.21 9.46Q30.26 9.32 30.26 9.17L30.26 9.17L30.26 9.17Q30.26 8.87 30.10 8.66L30.10 8.66L30.10 8.66Q29.94 8.46 29.67 8.46ZM36.78 10.35L36.78 10.35L36.78 10.35Q36.78 10.56 36.66 10.73L36.66 10.73L36.66 10.73Q36.54 10.90 36.23 10.91L36.23 10.91L36.23 10.91Q36.17 10.92 35.91 10.92L35.91 10.92L35.91 10.92Q35.65 10.93 35.29 10.94L35.29 10.94L35.29 10.94Q34.93 10.94 34.52 10.95L34.52 10.95L34.52 10.95Q34.11 10.96 33.76 10.97L33.76 10.97L33.76 10.97Q33.40 10.98 33.15 10.99L33.15 10.99L33.15 10.99Q32.90 10.99 32.85 10.99L32.85 10.99L32.85 10.99Q32.71 10.99 32.63 10.92L32.63 10.92L32.63 10.92Q32.55 10.85 32.50 10.76L32.50 10.76L32.50 10.76Q32.46 10.66 32.46 10.58L32.46 10.58L32.46 10.58Q32.45 10.50 32.45 10.48L32.45 10.48L32.45 10.48Q32.45 10.43 32.46 10.37L32.46 10.37L32.46 10.37Q32.46 10.31 32.48 10.25L32.48 10.25L32.48 10.25Q32.50 10.19 32.53 10.15L32.53 10.15L32.53 10.15Q32.55 10.11 32.59 10.10L32.59 10.10L32.59 10.10Q32.72 10.06 32.98 10.04L32.98 10.04L32.98 10.04Q33.23 10.01 33.55 10.00L33.55 10.00L33.55 10.00Q33.87 9.98 34.24 9.97L34.24 9.97L34.24 9.97Q34.61 9.96 34.98 9.95L34.98 9.95L34.98 9.95Q35.35 9.95 35.70 9.95L35.70 9.95L35.70 9.95Q36.06 9.95 36.35 9.95L36.35 9.95L36.35 9.95Q36.46 9.95 36.53 10.00L36.53 10.00L36.53 10.00Q36.61 10.05 36.67 10.12L36.67 10.12L36.67 10.12Q36.72 10.19 36.75 10.25L36.75 10.25L36.75 10.25Q36.78 10.32 36.78 10.35ZM45.17 3.91L45.17 3.91L45.17 3.91Q45.18 4.03 45.18 4.42L45.18 4.42L45.18 4.42Q45.18 4.81 45.17 5.37L45.17 5.37L45.17 5.37Q45.16 5.93 45.14 6.62L45.14 6.62L45.14 6.62Q45.12 7.31 45.10 8.05L45.10 8.05L45.10 8.05Q45.07 8.79 45.04 9.54L45.04 9.54L45.04 9.54Q45.01 10.29 44.97 10.96L44.97 10.96L44.97 10.96Q44.94 11.63 44.90 12.18L44.90 12.18L44.90 12.18Q44.86 12.73 44.82 13.07L44.82 13.07L44.82 13.07Q44.82 13.11 44.78 13.14L44.78 13.14L44.78 13.14Q44.74 13.17 44.70 13.25L44.70 13.25L44.70 13.25Q44.66 13.32 44.62 13.32L44.62 13.32L44.62 13.32Q44.58 13.33 44.55 13.32L44.55 13.32L44.55 13.32Q44.52 13.32 44.51 13.32L44.51 13.32L44.51 13.32Q44.50 13.33 44.51 13.39L44.51 13.39L44.51 13.39Q44.52 13.43 44.46 13.46L44.46 13.46L44.46 13.46Q44.41 13.48 44.37 13.45L44.37 13.45L44.37 13.45Q44.31 13.41 44.24 13.35L44.24 13.35L44.24 13.35Q44.16 13.29 44.14 13.29L44.14 13.29L44.14 13.29Q44.10 13.28 44.11 13.32L44.11 13.32L44.11 13.32Q44.13 13.36 44.15 13.41L44.15 13.41L44.15 13.41Q44.17 13.46 44.18 13.50L44.18 13.50L44.18 13.50Q44.19 13.55 44.14 13.56L44.14 13.56L44.14 13.56Q44.04 13.57 43.90 13.51L43.90 13.51L43.90 13.51Q43.77 13.45 43.65 13.36L43.65 13.36L43.65 13.36Q43.56 13.29 43.37 13.03L43.37 13.03L43.37 13.03Q43.18 12.77 42.91 12.37L42.91 12.37L42.91 12.37Q42.65 11.97 42.33 11.46L42.33 11.46L42.33 11.46Q42.01 10.94 41.67 10.36L41.67 10.36L41.67 10.36Q41.33 9.78 40.97 9.16L40.97 9.16L40.97 9.16Q40.62 8.54 40.28 7.92L40.28 7.92L40.28 7.92Q39.95 7.30 39.64 6.71L39.64 6.71L39.64 6.71Q39.33 6.13 39.09 5.62L39.09 5.62L39.09 5.62Q39.06 5.91 39.04 6.40L39.04 6.40L39.04 6.40Q39.02 6.90 39.00 7.50L39.00 7.50L39.00 7.50Q38.99 8.11 38.97 8.78L38.97 8.78L38.97 8.78Q38.96 9.45 38.95 10.10L38.95 10.10L38.95 10.10Q38.94 10.75 38.93 11.33L38.93 11.33L38.93 11.33Q38.92 11.91 38.92 12.33L38.92 12.33L38.92 12.33Q38.92 12.60 38.91 12.71L38.91 12.71L38.91 12.71Q38.90 12.82 38.89 12.87L38.89 12.87L38.89 12.87Q38.88 12.91 38.87 12.92L38.87 12.92L38.87 12.92Q38.86 12.94 38.86 13.02L38.86 13.02L38.86 13.02Q38.86 13.24 38.83 13.42L38.83 13.42L38.83 13.42Q38.81 13.60 38.71 13.62L38.71 13.62L38.71 13.62Q38.66 13.65 38.61 13.61L38.61 13.61L38.61 13.61Q38.56 13.56 38.49 13.58L38.49 13.58L38.49 13.58Q38.47 13.58 38.44 13.62L38.44 13.62L38.44 13.62Q38.40 13.66 38.33 13.66L38.33 13.66L38.33 13.66Q38.27 13.66 38.18 13.60L38.18 13.60L38.18 13.60Q38.09 13.55 38.06 13.41L38.06 13.41L38.04 13.15L38.04 13.15Q38.03 13.11 38.02 13.10L38.02 13.10L38.02 13.10Q38.01 13.08 38.00 13.06L38.00 13.06L38.00 13.06Q37.99 13.03 37.98 12.96L37.98 12.96L37.98 12.96Q37.97 12.90 37.97 12.74L37.97 12.74L37.97 12.74Q37.97 12.70 37.98 12.36L37.98 12.36L37.98 12.36Q37.99 12.01 38.02 11.46L38.02 11.46L38.02 11.46Q38.04 10.92 38.07 10.22L38.07 10.22L38.07 10.22Q38.10 9.52 38.14 8.78L38.14 8.78L38.14 8.78Q38.18 8.03 38.22 7.29L38.22 7.29L38.22 7.29Q38.25 6.56 38.30 5.93L38.30 5.93L38.30 5.93Q38.34 5.30 38.38 4.83L38.38 4.83L38.38 4.83Q38.42 4.36 38.46 4.16L38.46 4.16L38.46 4.16Q38.42 4.08 38.41 4.01L38.41 4.01L38.41 4.01Q38.39 3.93 38.39 3.87L38.39 3.87L38.39 3.87Q38.38 3.83 38.40 3.81L38.40 3.81L38.40 3.81Q38.42 3.80 38.45 3.79L38.45 3.79L38.45 3.79Q38.48 3.78 38.51 3.77L38.51 3.77L38.51 3.77Q38.55 3.75 38.58 3.71L38.58 3.71L38.58 3.71Q38.60 3.69 38.61 3.61L38.61 3.61L38.61 3.61Q38.62 3.53 38.65 3.53L38.65 3.53L38.65 3.53Q38.75 3.53 38.81 3.49L38.81 3.49L38.81 3.49Q38.87 3.45 38.98 3.43L38.98 3.43L38.98 3.43Q38.98 3.32 39.04 3.28L39.04 3.28L39.04 3.28Q39.07 3.26 39.10 3.27L39.10 3.27L39.10 3.27Q39.22 3.28 39.28 3.36L39.28 3.36L39.28 3.36Q39.35 3.44 39.38 3.51L39.38 3.51L39.38 3.51Q39.42 3.59 39.44 3.63L39.44 3.63L39.44 3.63Q39.46 3.67 39.49 3.75L39.49 3.75L39.49 3.75Q39.54 3.82 39.68 4.07L39.68 4.07L39.68 4.07Q39.82 4.31 40.02 4.68L40.02 4.68L40.02 4.68Q40.23 5.05 40.49 5.51L40.49 5.51L40.49 5.51Q40.75 5.97 41.03 6.49L41.03 6.49L41.03 6.49Q41.32 7.01 41.62 7.54L41.62 7.54L41.62 7.54Q41.92 8.08 42.21 8.59L42.21 8.59L42.21 8.59Q42.49 9.11 42.75 9.57L42.75 9.57L42.75 9.57Q43.01 10.04 43.22 10.41L43.22 10.41L43.22 10.41Q43.44 10.78 43.58 11.03L43.58 11.03L43.58 11.03Q43.72 11.28 43.78 11.36L43.78 11.36L43.78 11.36Q43.91 11.56 43.97 11.58L43.97 11.58L43.97 11.58Q44.02 11.61 44.10 11.46L44.10 11.46L44.10 11.46Q44.13 11.39 44.16 11.14L44.16 11.14L44.16 11.14Q44.19 10.89 44.23 10.51L44.23 10.51L44.23 10.51Q44.26 10.12 44.28 9.64L44.28 9.64L44.28 9.64Q44.30 9.15 44.32 8.62L44.32 8.62L44.32 8.62Q44.34 8.09 44.36 7.53L44.36 7.53L44.36 7.53Q44.37 6.97 44.38 6.44L44.38 6.44L44.38 6.44Q44.38 5.91 44.38 5.45L44.38 5.45L44.38 5.45Q44.37 4.98 44.35 4.63L44.35 4.63L44.35 4.63Q44.34 4.44 44.34 4.29L44.34 4.29L44.34 4.29Q44.34 4.16 44.36 4.05L44.36 4.05L44.36 4.05Q44.37 3.94 44.41 3.94L44.41 3.94L44.41 3.94Q44.45 3.90 44.49 3.89L44.49 3.89L44.49 3.89Q44.53 3.88 44.55 3.89L44.55 3.89L44.55 3.89Q44.58 3.89 44.60 3.90L44.60 3.90L44.60 3.90Q44.62 3.90 44.63 3.90L44.63 3.90L44.63 3.90Q44.65 3.89 44.65 3.88L44.65 3.88L44.65 3.88Q44.65 3.86 44.65 3.84L44.65 3.84L44.65 3.84Q44.65 3.82 44.67 3.80L44.67 3.80L44.67 3.80Q44.68 3.77 44.73 3.76L44.73 3.76L44.73 3.76Q44.78 3.74 44.81 3.74L44.81 3.74L44.81 3.74Q44.84 3.73 44.86 3.74L44.86 3.74L44.86 3.74Q44.88 3.75 44.90 3.75L44.90 3.75L44.90 3.75Q44.91 3.76 44.94 3.75L44.94 3.75L44.94 3.75Q44.99 3.72 45.03 3.69L45.03 3.69L45.03 3.69Q45.06 3.67 45.09 3.68L45.09 3.68L45.09 3.68Q45.12 3.68 45.13 3.74L45.13 3.74L45.13 3.74Q45.15 3.79 45.17 3.91ZM50.70 10.35L50.70 10.35L50.70 10.35Q50.70 10.56 50.58 10.73L50.58 10.73L50.58 10.73Q50.46 10.90 50.15 10.91L50.15 10.91L50.15 10.91Q50.09 10.92 49.83 10.92L49.83 10.92L49.83 10.92Q49.57 10.93 49.21 10.94L49.21 10.94L49.21 10.94Q48.85 10.94 48.44 10.95L48.44 10.95L48.44 10.95Q48.03 10.96 47.67 10.97L47.67 10.97L47.67 10.97Q47.32 10.98 47.07 10.99L47.07 10.99L47.07 10.99Q46.82 10.99 46.77 10.99L46.77 10.99L46.77 10.99Q46.63 10.99 46.55 10.92L46.55 10.92L46.55 10.92Q46.46 10.85 46.42 10.76L46.42 10.76L46.42 10.76Q46.38 10.66 46.38 10.58L46.38 10.58L46.38 10.58Q46.37 10.50 46.37 10.48L46.37 10.48L46.37 10.48Q46.37 10.43 46.38 10.37L46.38 10.37L46.38 10.37Q46.38 10.31 46.40 10.25L46.40 10.25L46.40 10.25Q46.42 10.19 46.44 10.15L46.44 10.15L46.44 10.15Q46.47 10.11 46.50 10.10L46.50 10.10L46.50 10.10Q46.64 10.06 46.89 10.04L46.89 10.04L46.89 10.04Q47.15 10.01 47.47 10.00L47.47 10.00L47.47 10.00Q47.79 9.98 48.16 9.97L48.16 9.97L48.16 9.97Q48.53 9.96 48.90 9.95L48.90 9.95L48.90 9.95Q49.27 9.95 49.62 9.95L49.62 9.95L49.62 9.95Q49.98 9.95 50.27 9.95L50.27 9.95L50.27 9.95Q50.37 9.95 50.45 10.00L50.45 10.00L50.45 10.00Q50.53 10.05 50.59 10.12L50.59 10.12L50.59 10.12Q50.64 10.19 50.67 10.25L50.67 10.25L50.67 10.25Q50.70 10.32 50.70 10.35ZM58.72 4.58L58.72 4.58L58.72 4.58Q58.67 4.86 58.46 5.13L58.46 5.13L58.46 5.13Q58.25 5.40 57.99 5.59L57.99 5.59L57.99 5.59Q57.96 5.63 57.86 5.67L57.86 5.67L57.86 5.67Q57.76 5.71 57.64 5.75L57.64 5.75L57.64 5.75Q57.53 5.80 57.42 5.83L57.42 5.83L57.42 5.83Q57.31 5.87 57.25 5.87L57.25 5.87L57.25 5.87Q57.20 5.89 57.17 5.87L57.17 5.87L57.17 5.87Q57.13 5.84 57.11 5.82L57.11 5.82L57.11 5.82Q57.08 5.79 57.04 5.77L57.04 5.77L57.04 5.77Q57.00 5.74 56.94 5.74L56.94 5.74L56.94 5.74Q56.85 5.74 56.84 5.70L56.84 5.70L56.84 5.70Q56.82 5.67 56.85 5.56L56.85 5.56L56.85 5.56Q56.87 5.53 56.90 5.47L56.90 5.47L56.90 5.47Q56.94 5.41 57.01 5.31L57.01 5.31L57.01 5.31Q57.07 5.25 57.10 5.17L57.10 5.17L57.10 5.17Q57.14 5.10 57.12 5.03L57.12 5.03L57.12 5.03Q57.09 4.97 56.98 4.93L56.98 4.93L56.98 4.93Q56.88 4.89 56.64 4.89L56.64 4.89L56.64 4.89Q56.40 4.89 56.03 4.95L56.03 4.95L56.03 4.95Q55.62 5.00 55.18 5.15L55.18 5.15L55.18 5.15Q54.74 5.30 54.32 5.50L54.32 5.50L54.32 5.50Q53.91 5.70 53.56 5.93L53.56 5.93L53.56 5.93Q53.21 6.15 52.99 6.37L52.99 6.37L52.99 6.37Q52.77 6.58 52.71 6.77L52.71 6.77L52.71 6.77Q52.64 6.96 52.81 7.08L52.81 7.08L52.81 7.08Q52.95 7.18 53.25 7.25L53.25 7.25L53.25 7.25Q53.54 7.32 53.92 7.38L53.92 7.38L53.92 7.38Q54.30 7.44 54.74 7.50L54.74 7.50L54.74 7.50Q55.18 7.57 55.61 7.66L55.61 7.66L55.61 7.66Q56.05 7.75 56.44 7.88L56.44 7.88L56.44 7.88Q56.83 8.00 57.13 8.20L57.13 8.20L57.13 8.20Q57.35 8.34 57.49 8.47L57.49 8.47L57.49 8.47Q57.63 8.60 57.72 8.73L57.72 8.73L57.72 8.73Q57.81 8.85 57.87 8.97L57.87 8.97L57.87 8.97Q57.92 9.09 57.96 9.21L57.96 9.21L57.96 9.21Q57.99 9.29 58.06 9.38L58.06 9.38L58.06 9.38Q58.13 9.47 58.21 9.60L58.21 9.60L58.21 9.60Q58.30 9.73 58.37 9.90L58.37 9.90L58.37 9.90Q58.43 10.07 58.45 10.29L58.45 10.29L58.45 10.29Q58.48 10.75 58.27 11.15L58.27 11.15L58.27 11.15Q58.06 11.55 57.73 11.89L57.73 11.89L57.73 11.89Q57.40 12.24 57.00 12.51L57.00 12.51L57.00 12.51Q56.59 12.78 56.23 12.95L56.23 12.95L56.23 12.95Q55.90 13.11 55.54 13.25L55.54 13.25L55.54 13.25Q55.18 13.38 54.80 13.48L54.80 13.48L54.80 13.48Q54.41 13.58 54.02 13.64L54.02 13.64L54.02 13.64Q53.63 13.70 53.25 13.70L53.25 13.70L53.25 13.70Q52.61 13.70 52.05 13.52L52.05 13.52L52.05 13.52Q51.50 13.35 51.08 12.94L51.08 12.94L51.08 12.94Q50.89 12.73 50.80 12.51L50.80 12.51L50.80 12.51Q50.71 12.30 50.71 12.09L50.71 12.09L50.71 12.09Q50.71 11.83 50.81 11.59L50.81 11.59L50.81 11.59Q50.91 11.35 51.08 11.14L51.08 11.14L51.08 11.14Q51.24 10.93 51.44 10.76L51.44 10.76L51.44 10.76Q51.64 10.60 51.83 10.49L51.83 10.49L51.83 10.49Q52.10 10.34 52.39 10.20L52.39 10.20L52.39 10.20Q52.68 10.06 52.97 9.95L52.97 9.95L52.97 9.95Q53.27 9.84 53.56 9.76L53.56 9.76L53.56 9.76Q53.85 9.69 54.13 9.67L54.13 9.67L54.13 9.67Q54.24 9.65 54.42 9.64L54.42 9.64L54.42 9.64Q54.60 9.63 54.76 9.63L54.76 9.63L54.76 9.63Q54.86 9.63 54.93 9.68L54.93 9.68L54.93 9.68Q55.00 9.73 54.98 9.78L54.98 9.78L54.98 9.78Q54.95 9.85 54.86 9.85L54.86 9.85L54.86 9.85Q54.78 9.85 54.66 9.88L54.66 9.88L54.66 9.88Q54.53 9.91 54.40 9.93L54.40 9.93L54.40 9.93Q54.27 9.94 54.17 9.97L54.17 9.97L54.17 9.97Q53.39 10.15 52.85 10.42L52.85 10.42L52.85 10.42Q52.32 10.70 52.00 10.98L52.00 10.98L52.00 10.98Q51.68 11.26 51.56 11.51L51.56 11.51L51.56 11.51Q51.45 11.76 51.50 11.89L51.50 11.89L51.50 11.89Q51.56 12.07 51.75 12.17L51.75 12.17L51.75 12.17Q51.93 12.28 52.17 12.32L52.17 12.32L52.17 12.32Q52.40 12.37 52.64 12.37L52.64 12.37L52.64 12.37Q52.88 12.38 53.05 12.37L53.05 12.37L53.05 12.37Q53.44 12.35 53.93 12.25L53.93 12.25L53.93 12.25Q54.42 12.15 54.92 12.00L54.92 12.00L54.92 12.00Q55.43 11.84 55.90 11.62L55.90 11.62L55.90 11.62Q56.38 11.41 56.75 11.15L56.75 11.15L56.75 11.15Q57.12 10.90 57.35 10.60L57.35 10.60L57.35 10.60Q57.57 10.30 57.57 9.97L57.57 9.97L57.57 9.97Q57.57 9.86 57.54 9.76L57.54 9.76L57.54 9.76Q57.51 9.65 57.46 9.54L57.46 9.54L57.46 9.54Q57.35 9.34 57.07 9.20L57.07 9.20L57.07 9.20Q56.78 9.06 56.38 8.96L56.38 8.96L56.38 8.96Q55.98 8.86 55.51 8.78L55.51 8.78L55.51 8.78Q55.04 8.70 54.59 8.62L54.59 8.62L54.59 8.62Q54.13 8.54 53.72 8.44L53.72 8.44L53.72 8.44Q53.31 8.33 53.03 8.18L53.03 8.18L53.03 8.18Q52.72 8.01 52.57 7.84L52.57 7.84L52.57 7.84Q52.42 7.68 52.40 7.42L52.40 7.42L52.40 7.42Q52.40 7.40 52.36 7.33L52.36 7.33L52.36 7.33Q52.33 7.26 52.28 7.18L52.28 7.18L52.28 7.18Q52.24 7.11 52.20 7.04L52.20 7.04L52.20 7.04Q52.16 6.97 52.14 6.93L52.14 6.93L52.14 6.93Q52.03 6.73 52.03 6.50L52.03 6.50L52.03 6.50Q52.03 6.24 52.15 5.97L52.15 5.97L52.15 5.97Q52.27 5.69 52.45 5.50L52.45 5.50L52.45 5.50Q52.77 5.12 53.31 4.80L53.31 4.80L53.31 4.80Q53.85 4.48 54.48 4.24L54.48 4.24L54.48 4.24Q55.12 4.00 55.79 3.85L55.79 3.85L55.79 3.85Q56.46 3.71 57.07 3.68L57.07 3.68L57.07 3.68Q57.31 3.68 57.62 3.72L57.62 3.72L57.62 3.72Q57.93 3.76 58.19 3.87L58.19 3.87L58.19 3.87Q58.45 3.97 58.61 4.15L58.61 4.15L58.61 4.15Q58.77 4.32 58.72 4.58ZM63.42 8.91L63.42 8.91L63.42 8.91Q63.44 9.00 63.44 9.12L63.44 9.12L63.44 9.12Q63.45 9.24 63.45 9.37L63.45 9.37L63.45 9.37Q63.45 9.70 63.42 10.14L63.42 10.14L63.42 10.14Q63.40 10.58 63.36 11.18L63.36 11.18L63.36 11.18Q63.34 11.41 63.33 11.77L63.33 11.77L63.33 11.77Q63.33 12.13 63.33 12.51L63.33 12.51L63.33 12.51Q63.33 12.84 63.34 13.15L63.34 13.15L63.34 13.15Q63.35 13.45 63.37 13.69L63.37 13.69L63.37 13.69Q63.38 13.79 63.32 13.79L63.32 13.79L63.32 13.79Q63.26 13.80 63.18 13.78L63.18 13.78L63.18 13.78Q63.15 13.77 63.12 13.78L63.12 13.78L63.12 13.78Q63.10 13.79 63.07 13.82L63.07 13.82L63.07 13.82Q63.05 13.84 63.02 13.85L63.02 13.85L63.02 13.85Q63 13.86 62.96 13.82L62.96 13.82L62.96 13.82Q62.92 13.79 62.84 13.74L62.84 13.74L62.84 13.74Q62.76 13.69 62.67 13.62L62.67 13.62L62.67 13.62Q62.58 13.56 62.49 13.48L62.49 13.48L62.49 13.48Q62.41 13.41 62.37 13.34L62.37 13.34L62.37 13.34Q62.33 13.25 62.32 12.87L62.32 12.87L62.32 12.87Q62.30 12.50 62.30 11.96L62.30 11.96L62.30 11.04L62.30 11.04Q62.31 10.74 62.33 10.45L62.33 10.45L62.33 10.45Q62.35 10.15 62.38 9.88L62.38 9.88L62.38 9.88Q62.41 9.60 62.43 9.36L62.43 9.36L62.43 9.36Q62.45 9.12 62.45 8.92L62.45 8.92L62.45 8.92Q62.45 8.61 62.36 8.45L62.36 8.45L62.36 8.45Q62.34 8.42 62.23 8.48L62.23 8.48L62.23 8.48Q62.13 8.54 61.97 8.74L61.97 8.74L61.97 8.74Q61.81 8.94 61.61 9.30L61.61 9.30L61.61 9.30Q61.41 9.67 61.19 10.24L61.19 10.24L61.19 10.24Q60.96 10.81 60.73 11.63L60.73 11.63L60.73 11.63Q60.50 12.44 60.30 13.54L60.30 13.54L60.30 13.54Q60.28 13.64 60.25 13.68L60.25 13.68L60.25 13.68Q60.22 13.71 60.14 13.71L60.14 13.71L60.14 13.71Q60.08 13.71 60.04 13.63L60.04 13.63L60.04 13.63Q60.01 13.54 59.95 13.49L59.95 13.49L59.95 13.49Q59.82 13.49 59.72 13.46L59.72 13.46L59.72 13.46Q59.61 13.43 59.59 13.29L59.59 13.29L59.59 13.29Q59.59 13.24 59.56 13.20L59.56 13.20L59.56 13.20Q59.54 13.16 59.51 13.11L59.51 13.11L59.51 13.11Q59.48 13.06 59.46 13.00L59.46 13.00L59.46 13.00Q59.43 12.94 59.43 12.86L59.43 12.86L59.43 12.86Q59.45 12.38 59.47 11.82L59.47 11.82L59.47 11.82Q59.48 11.25 59.50 10.66L59.50 10.66L59.50 10.66Q59.51 10.07 59.53 9.47L59.53 9.47L59.53 9.47Q59.54 8.88 59.56 8.34L59.56 8.34L59.56 8.34Q59.58 7.79 59.60 7.32L59.60 7.32L59.60 7.32Q59.62 6.86 59.64 6.51L59.64 6.51L59.64 6.51Q59.73 5.50 59.81 4.91L59.81 4.91L59.81 4.91Q59.89 4.33 59.91 4.23L59.91 4.23L59.91 4.23Q59.93 4.16 59.95 4.13L59.95 4.13L59.95 4.13Q59.97 4.09 59.99 4.08L59.99 4.08L59.99 4.08Q60.01 4.07 60.02 4.06L60.02 4.06L60.02 4.06Q60.03 4.05 60.03 4.03L60.03 4.03L60.03 4.03Q60.05 4.00 60.08 4.00L60.08 4.00L60.08 4.00Q60.12 3.99 60.17 4.00L60.17 4.00L60.17 4.00Q60.22 4.00 60.26 4.00L60.26 4.00L60.26 4.00Q60.30 3.99 60.33 3.96L60.33 3.96L60.33 3.96Q60.38 3.92 60.42 3.90L60.42 3.90L60.42 3.90Q60.46 3.87 60.55 3.87L60.55 3.87L60.55 3.87Q60.67 3.86 60.73 3.87L60.73 3.87L60.73 3.87Q60.79 3.89 60.81 4.01L60.81 4.01L60.81 4.01Q60.83 4.22 60.82 4.56L60.82 4.56L60.82 4.56Q60.81 4.90 60.79 5.31L60.79 5.31L60.79 5.31Q60.76 5.72 60.72 6.18L60.72 6.18L60.72 6.18Q60.69 6.63 60.65 7.07L60.65 7.07L60.65 7.07Q60.61 7.51 60.58 7.90L60.58 7.90L60.58 7.90Q60.55 8.29 60.54 8.57L60.54 8.57L60.54 8.57Q60.53 8.73 60.52 8.95L60.52 8.95L60.52 8.95Q60.52 9.17 60.52 9.43L60.52 9.43L60.52 9.43Q60.52 9.69 60.52 9.96L60.52 9.96L60.52 9.96Q60.52 10.24 60.51 10.51L60.51 10.51L60.51 10.51Q60.72 9.85 60.97 9.36L60.97 9.36L60.97 9.36Q61.22 8.87 61.46 8.54L61.46 8.54L61.46 8.54Q61.71 8.22 61.94 8.05L61.94 8.05L61.94 8.05Q62.17 7.88 62.34 7.85L62.34 7.85L62.34 7.85Q62.38 7.84 62.49 7.87L62.49 7.87L62.49 7.87Q62.60 7.90 62.71 7.93L62.71 7.93L62.71 7.93Q62.83 7.96 62.92 8.00L62.92 8.00L62.92 8.00Q63.02 8.04 63.03 8.05L63.03 8.05L63.03 8.05Q63.06 8.09 63.12 8.15L63.12 8.15L63.12 8.15Q63.17 8.20 63.23 8.30L63.23 8.30L63.23 8.30Q63.29 8.39 63.34 8.54L63.34 8.54L63.34 8.54Q63.39 8.70 63.42 8.91ZM68.73 9.50L68.73 9.50L68.73 9.50Q68.74 9.73 68.69 10.08L68.69 10.08L68.69 10.08Q68.64 10.42 68.58 10.82L68.58 10.82L68.58 10.82Q68.52 11.21 68.46 11.62L68.46 11.62L68.46 11.62Q68.41 12.03 68.41 12.39L68.41 12.39L68.41 12.39Q68.41 12.63 68.44 12.85L68.44 12.85L68.44 12.85Q68.48 13.06 68.56 13.22L68.56 13.22L68.56 13.22Q68.61 13.31 68.61 13.38L68.61 13.38L68.61 13.38Q68.61 13.45 68.60 13.50L68.60 13.50L68.60 13.50Q68.58 13.55 68.57 13.59L68.57 13.59L68.57 13.59Q68.56 13.62 68.57 13.66L68.57 13.66L68.57 13.66Q68.58 13.69 68.56 13.74L68.56 13.74L68.56 13.74Q68.54 13.78 68.50 13.82L68.50 13.82L68.50 13.82Q68.46 13.86 68.41 13.87L68.41 13.87L68.41 13.87Q68.36 13.89 68.32 13.86L68.32 13.86L68.32 13.86Q68.24 13.82 68.20 13.81L68.20 13.81L68.20 13.81Q68.15 13.80 68.12 13.81L68.12 13.81L68.12 13.81Q68.09 13.82 68.07 13.84L68.07 13.84L68.07 13.84Q68.04 13.85 68.01 13.84L68.01 13.84L68.01 13.84Q67.89 13.77 67.76 13.69L67.76 13.69L67.76 13.69Q67.62 13.61 67.58 13.51L67.58 13.51L67.58 13.51Q67.55 13.47 67.53 13.38L67.53 13.38L67.53 13.38Q67.50 13.28 67.49 13.15L67.49 13.15L67.49 13.15Q67.47 13.02 67.46 12.87L67.46 12.87L67.46 12.87Q67.44 12.72 67.44 12.58L67.44 12.58L67.44 12.58Q67.21 13.00 66.95 13.28L66.95 13.28L66.95 13.28Q66.70 13.56 66.44 13.73L66.44 13.73L66.44 13.73Q66.19 13.90 65.94 13.97L65.94 13.97L65.94 13.97Q65.69 14.03 65.48 14.03L65.48 14.03L65.48 14.03Q65.27 14.03 65.11 13.98L65.11 13.98L65.11 13.98Q64.95 13.92 64.86 13.85L64.86 13.85L64.86 13.85Q64.52 13.51 64.38 13.31L64.38 13.31L64.38 13.31Q64.24 13.10 64.26 12.97L64.26 12.97L64.26 12.97Q64.29 12.53 64.47 12.16L64.47 12.16L64.47 12.16Q64.65 11.79 64.91 11.48L64.91 11.48L64.91 11.48Q65.18 11.17 65.51 10.92L65.51 10.92L65.51 10.92Q65.84 10.67 66.19 10.48L66.19 10.48L66.19 10.48Q66.53 10.28 66.87 10.15L66.87 10.15L66.87 10.15Q67.20 10.01 67.48 9.93L67.48 9.93L67.48 9.93Q67.46 9.56 67.45 9.29L67.45 9.29L67.45 9.29Q67.43 9.01 67.40 8.88L67.40 8.88L67.40 8.88Q67.29 8.46 67.08 8.25L67.08 8.25L67.08 8.25Q66.87 8.04 66.57 8.04L66.57 8.04L66.57 8.04Q66.38 8.04 66.18 8.18L66.18 8.18L66.18 8.18Q65.99 8.33 65.83 8.57L65.83 8.57L65.83 8.57Q65.67 8.82 65.57 9.14L65.57 9.14L65.57 9.14Q65.47 9.46 65.47 9.82L65.47 9.82L65.47 9.82Q65.47 9.91 65.47 9.99L65.47 9.99L65.47 9.99Q65.48 10.07 65.50 10.16L65.50 10.16L65.50 10.16Q65.50 10.21 65.46 10.23L65.46 10.23L65.46 10.23Q65.43 10.25 65.37 10.26L65.37 10.26L65.37 10.26Q65.32 10.27 65.26 10.27L65.26 10.27L65.26 10.27Q65.19 10.28 65.15 10.29L65.15 10.29L65.15 10.29Q65.12 10.31 65.10 10.31L65.10 10.31L65.10 10.31Q65.08 10.32 65.06 10.31L65.06 10.31L65.06 10.31Q65.04 10.29 65.01 10.27L65.01 10.27L65.01 10.27Q64.98 10.24 64.92 10.20L64.92 10.20L64.92 10.20Q64.87 10.16 64.81 10.13L64.81 10.13L64.81 10.13Q64.75 10.10 64.71 10.08L64.71 10.08L64.71 10.08Q64.66 10.06 64.63 10.05L64.63 10.05L64.63 10.05Q64.60 10.03 64.60 10.00L64.60 10.00L64.60 10.00Q64.60 9.58 64.79 9.13L64.79 9.13L64.79 9.13Q64.98 8.67 65.29 8.30L65.29 8.30L65.29 8.30Q65.61 7.93 66.03 7.69L66.03 7.69L66.03 7.69Q66.45 7.45 66.92 7.45L66.92 7.45L66.92 7.45Q67.31 7.45 67.59 7.57L67.59 7.57L67.59 7.57Q67.87 7.68 68.07 7.87L68.07 7.87L68.07 7.87Q68.26 8.05 68.39 8.28L68.39 8.28L68.39 8.28Q68.52 8.50 68.59 8.73L68.59 8.73L68.59 8.73Q68.66 8.96 68.69 9.16L68.69 9.16L68.69 9.16Q68.72 9.37 68.73 9.50ZM67.49 11.39L67.49 10.71L67.49 10.71Q67.29 10.79 67.04 10.91L67.04 10.91L67.04 10.91Q66.79 11.03 66.54 11.20L66.54 11.20L66.54 11.20Q66.29 11.37 66.04 11.59L66.04 11.59L66.04 11.59Q65.78 11.81 65.56 12.07L65.56 12.07L65.56 12.07Q65.30 12.38 65.19 12.62L65.19 12.62L65.19 12.62Q65.07 12.86 65.04 13.03L65.04 13.03L65.04 13.03Q65.02 13.19 65.06 13.29L65.06 13.29L65.06 13.29Q65.10 13.38 65.15 13.41L65.15 13.41L65.15 13.41Q65.37 13.49 65.59 13.42L65.59 13.42L65.59 13.42Q65.82 13.36 66.05 13.19L66.05 13.19L66.05 13.19Q66.28 13.02 66.50 12.79L66.50 12.79L66.50 12.79Q66.71 12.55 66.90 12.30L66.90 12.30L66.90 12.30Q67.09 12.05 67.25 11.81L67.25 11.81L67.25 11.81Q67.40 11.57 67.49 11.39L67.49 11.39ZM75.61 4.86L75.61 4.86L75.61 4.86Q75.61 5.00 75.57 5.29L75.57 5.29L75.57 5.29Q75.54 5.58 75.49 5.97L75.49 5.97L75.49 5.97Q75.43 6.36 75.38 6.85L75.38 6.85L75.38 6.85Q75.33 7.33 75.28 7.86L75.28 7.86L75.28 7.86Q75.23 8.39 75.20 8.94L75.20 8.94L75.20 8.94Q75.17 9.50 75.17 10.06L75.17 10.06L75.17 10.06Q75.17 10.34 75.18 10.71L75.18 10.71L75.18 10.71Q75.20 11.07 75.21 11.44L75.21 11.44L75.21 11.44Q75.23 11.81 75.25 12.17L75.25 12.17L75.25 12.17Q75.27 12.53 75.28 12.82L75.28 12.82L75.28 12.82Q75.30 13.10 75.30 13.29L75.30 13.29L75.30 13.29Q75.30 13.47 75.28 13.50L75.28 13.50L75.28 13.50Q75.24 13.54 75.19 13.54L75.19 13.54L75.19 13.54Q75.13 13.54 75.08 13.52L75.08 13.52L75.08 13.52Q75.02 13.51 74.97 13.51L74.97 13.51L74.97 13.51Q74.92 13.50 74.90 13.53L74.90 13.53L74.90 13.53Q74.89 13.56 74.85 13.60L74.85 13.60L74.85 13.60Q74.82 13.64 74.77 13.67L74.77 13.67L74.77 13.67Q74.73 13.70 74.67 13.71L74.67 13.71L74.67 13.71Q74.61 13.73 74.54 13.70L74.54 13.70L74.54 13.70Q74.42 13.63 74.32 13.50L74.32 13.50L74.32 13.50Q74.22 13.38 74.20 13.18L74.20 13.18L74.20 13.18Q74.18 13.04 74.17 12.86L74.17 12.86L74.17 12.86Q74.16 12.67 74.16 12.46L74.16 12.46L74.16 12.46Q74.15 12.24 74.15 12.01L74.15 12.01L74.15 12.01Q74.14 11.79 74.14 11.57L74.14 11.57L74.14 11.57Q73.98 12.02 73.75 12.38L73.75 12.38L73.75 12.38Q73.53 12.74 73.26 13.00L73.26 13.00L73.26 13.00Q73.00 13.25 72.71 13.42L72.71 13.42L72.71 13.42Q72.43 13.58 72.15 13.64L72.15 13.64L72.15 13.64Q71.78 13.71 71.38 13.63L71.38 13.63L71.38 13.63Q70.98 13.54 70.63 13.34L70.63 13.34L70.63 13.34Q70.29 13.14 70.03 12.84L70.03 12.84L70.03 12.84Q69.78 12.54 69.71 12.18L69.71 12.18L69.71 12.18Q69.65 11.93 69.63 11.69L69.63 11.69L69.63 11.69Q69.61 11.45 69.61 11.23L69.61 11.23L69.61 11.23Q69.61 10.65 69.75 10.18L69.75 10.18L69.75 10.18Q69.90 9.71 70.12 9.33L70.12 9.33L70.12 9.33Q70.35 8.96 70.62 8.69L70.62 8.69L70.62 8.69Q70.89 8.42 71.14 8.23L71.14 8.23L71.14 8.23Q71.39 8.05 71.59 7.95L71.59 7.95L71.59 7.95Q71.79 7.85 71.88 7.83L71.88 7.83L71.88 7.83Q72.04 7.79 72.21 7.77L72.21 7.77L72.21 7.77Q72.37 7.76 72.52 7.76L72.52 7.76L72.52 7.76Q72.82 7.76 73.08 7.82L73.08 7.82L73.08 7.82Q73.34 7.88 73.56 7.98L73.56 7.98L73.56 7.98Q73.77 8.07 73.94 8.19L73.94 8.19L73.94 8.19Q74.11 8.31 74.23 8.41L74.23 8.41L74.23 8.41Q74.25 8.00 74.27 7.59L74.27 7.59L74.27 7.59Q74.29 7.18 74.32 6.81L74.32 6.81L74.32 6.81Q74.34 6.44 74.36 6.13L74.36 6.13L74.36 6.13Q74.39 5.81 74.42 5.59L74.42 5.59L74.42 5.59Q74.48 5.22 74.53 4.96L74.53 4.96L74.53 4.96Q74.58 4.69 74.63 4.49L74.63 4.49L74.63 4.49Q74.68 4.30 74.73 4.16L74.73 4.16L74.73 4.16Q74.79 4.03 74.83 3.92L74.83 3.92L74.83 3.92Q74.86 3.90 74.93 3.89L74.93 3.89L74.93 3.89Q74.99 3.89 75.07 3.91L75.07 3.91L75.07 3.91Q75.15 3.92 75.24 3.96L75.24 3.96L75.24 3.96Q75.33 3.99 75.41 4.04L75.41 4.04L75.41 4.04Q75.48 4.09 75.52 4.14L75.52 4.14L75.52 4.14Q75.57 4.20 75.60 4.29L75.60 4.29L75.60 4.29Q75.63 4.38 75.63 4.51L75.63 4.51L75.63 4.51Q75.63 4.65 75.61 4.86ZM74.13 9.37L74.13 9.37L74.13 9.37Q74.13 9.28 74.14 9.18L74.14 9.18L74.14 9.18Q74.14 9.07 74.16 8.98L74.16 8.98L74.16 8.98Q74.10 9.02 74.06 9.06L74.06 9.06L74.06 9.06Q74.01 9.10 73.99 9.13L73.99 9.13L73.99 9.13Q73.84 9.30 73.79 9.32L73.79 9.32L73.79 9.32Q73.73 9.34 73.67 9.28L73.67 9.28L73.67 9.28Q73.21 8.81 72.78 8.64L72.78 8.64L72.78 8.64Q72.35 8.48 72.00 8.48L72.00 8.48L72.00 8.48Q71.77 8.48 71.60 8.53L71.60 8.53L71.60 8.53Q71.42 8.58 71.32 8.64L71.32 8.64L71.32 8.64Q71.13 8.75 70.98 8.97L70.98 8.97L70.98 8.97Q70.83 9.19 70.73 9.48L70.73 9.48L70.73 9.48Q70.62 9.77 70.56 10.10L70.56 10.10L70.56 10.10Q70.51 10.43 70.51 10.76L70.51 10.76L70.51 10.76Q70.51 11.11 70.58 11.43L70.58 11.43L70.58 11.43Q70.65 11.75 70.81 12.00L70.81 12.00L70.81 12.00Q70.96 12.24 71.22 12.38L71.22 12.38L71.22 12.38Q71.47 12.52 71.83 12.51L71.83 12.51L71.83 12.51Q72.23 12.49 72.55 12.32L72.55 12.32L72.55 12.32Q72.88 12.15 73.13 11.88L73.13 11.88L73.13 11.88Q73.39 11.61 73.58 11.28L73.58 11.28L73.58 11.28Q73.76 10.94 73.88 10.60L73.88 10.60L73.88 10.60Q74.01 10.26 74.07 9.94L74.07 9.94L74.07 9.94Q74.13 9.62 74.13 9.37ZM80.98 11.01L80.98 11.01L80.98 11.01Q80.98 11.08 80.99 11.18L80.99 11.18L80.99 11.18Q80.99 11.29 80.99 11.42L80.99 11.42L80.99 11.42Q80.99 11.58 80.94 11.82L80.94 11.82L80.94 11.82Q80.90 12.07 80.79 12.33L80.79 12.33L80.79 12.33Q80.68 12.60 80.51 12.87L80.51 12.87L80.51 12.87Q80.33 13.13 80.07 13.34L80.07 13.34L80.07 13.34Q79.81 13.56 79.46 13.69L79.46 13.69L79.46 13.69Q79.11 13.82 78.65 13.82L78.65 13.82L78.65 13.82Q78.25 13.82 77.83 13.67L77.83 13.67L77.83 13.67Q77.41 13.51 77.06 13.19L77.06 13.19L77.06 13.19Q76.72 12.87 76.50 12.36L76.50 12.36L76.50 12.36Q76.28 11.86 76.28 11.16L76.28 11.16L76.28 11.16Q76.28 10.73 76.39 10.30L76.39 10.30L76.39 10.30Q76.50 9.88 76.69 9.50L76.69 9.50L76.69 9.50Q76.88 9.13 77.13 8.81L77.13 8.81L77.13 8.81Q77.39 8.49 77.67 8.26L77.67 8.26L77.67 8.26Q77.96 8.03 78.26 7.90L78.26 7.90L78.26 7.90Q78.57 7.77 78.85 7.77L78.85 7.77L78.85 7.77Q79.35 7.77 79.68 7.93L79.68 7.93L79.68 7.93Q80.00 8.09 80.19 8.32L80.19 8.32L80.19 8.32Q80.38 8.55 80.46 8.81L80.46 8.81L80.46 8.81Q80.54 9.08 80.54 9.29L80.54 9.29L80.54 9.29Q80.54 9.50 80.44 9.76L80.44 9.76L80.44 9.76Q80.34 10.02 80.12 10.26L80.12 10.26L80.12 10.26Q79.89 10.49 79.53 10.65L79.53 10.65L79.53 10.65Q79.17 10.81 78.64 10.81L78.64 10.81L78.64 10.81Q78.36 10.81 78.14 10.74L78.14 10.74L78.14 10.74Q77.92 10.66 77.75 10.54L77.75 10.54L77.75 10.54Q77.57 10.42 77.45 10.28L77.45 10.28L77.45 10.28Q77.33 10.14 77.25 10.01L77.25 10.01L77.25 10.01Q77.13 10.44 77.13 11.01L77.13 11.01L77.13 11.01Q77.13 11.40 77.24 11.71L77.24 11.71L77.24 11.71Q77.36 12.02 77.55 12.24L77.55 12.24L77.55 12.24Q77.75 12.46 78.03 12.57L78.03 12.57L78.03 12.57Q78.30 12.69 78.63 12.69L78.63 12.69L78.63 12.69Q79.04 12.69 79.34 12.55L79.34 12.55L79.34 12.55Q79.65 12.41 79.88 12.20L79.88 12.20L79.88 12.20Q80.11 11.98 80.28 11.73L80.28 11.73L80.28 11.73Q80.45 11.48 80.57 11.28L80.57 11.28L80.57 11.28Q80.69 11.07 80.78 10.93L80.78 10.93L80.78 10.93Q80.88 10.79 80.96 10.80L80.96 10.80L80.96 10.80Q81.01 10.80 81.01 10.87L81.01 10.87L81.01 10.87Q81.01 10.90 81.00 10.94L81.00 10.94L81.00 10.94Q80.99 10.97 80.98 11.01ZM78.92 8.46L78.92 8.46L78.92 8.46Q78.80 8.46 78.60 8.51L78.60 8.51L78.60 8.51Q78.41 8.57 78.19 8.70L78.19 8.70L78.19 8.70Q77.98 8.83 77.77 9.05L77.77 9.05L77.77 9.05Q77.55 9.27 77.40 9.61L77.40 9.61L77.40 9.61Q77.49 9.56 77.56 9.53L77.56 9.53L77.56 9.53Q77.64 9.50 77.66 9.50L77.66 9.50L77.66 9.50Q77.68 9.50 77.70 9.52L77.70 9.52L77.70 9.52Q77.86 9.79 78.10 9.90L78.10 9.90L78.10 9.90Q78.33 10.01 78.63 10.01L78.63 10.01L78.63 10.01Q78.86 10.01 79.03 9.94L79.03 9.94L79.03 9.94Q79.19 9.86 79.30 9.73L79.30 9.73L79.30 9.73Q79.41 9.61 79.46 9.46L79.46 9.46L79.46 9.46Q79.51 9.32 79.51 9.17L79.51 9.17L79.51 9.17Q79.51 8.87 79.35 8.66L79.35 8.66L79.35 8.66Q79.19 8.46 78.92 8.46ZM86.14 8.13L86.14 8.13L86.14 8.13Q86.16 8.17 86.16 8.21L86.16 8.21L86.16 8.21Q86.17 8.25 86.17 8.31L86.17 8.31L86.17 8.31Q86.17 8.52 85.94 8.76L85.94 8.76L85.94 8.76Q85.71 9.00 85.22 9.20L85.22 9.20L85.22 9.20Q85.11 9.24 85.03 9.24L85.03 9.24L85.03 9.24Q84.93 9.24 84.86 9.18L84.86 9.18L84.86 9.18Q84.79 9.13 84.79 9.06L84.79 9.06L84.79 9.06Q84.79 9.02 84.84 8.97L84.84 8.97L84.84 8.97Q84.89 8.91 84.95 8.86L84.95 8.86L84.95 8.86Q85.00 8.80 85.06 8.76L85.06 8.76L85.06 8.76Q85.11 8.71 85.11 8.68L85.11 8.68L85.11 8.68Q85.11 8.63 85.02 8.63L85.02 8.63L85.02 8.63Q84.88 8.63 84.67 8.71L84.67 8.71L84.67 8.71Q84.46 8.78 84.22 8.91L84.22 8.91L84.22 8.91Q83.99 9.04 83.74 9.18L83.74 9.18L83.74 9.18Q83.50 9.33 83.31 9.47L83.31 9.47L83.31 9.47Q83.12 9.61 83.00 9.72L83.00 9.72L83.00 9.72Q82.88 9.83 82.88 9.88L82.88 9.88L82.88 9.88Q82.88 9.91 82.93 9.91L82.93 9.91L83.13 9.91L83.13 9.91Q83.32 9.91 83.61 9.93L83.61 9.93L83.61 9.93Q83.90 9.95 84.22 10.00L84.22 10.00L84.22 10.00Q84.54 10.06 84.86 10.17L84.86 10.17L84.86 10.17Q85.19 10.27 85.45 10.45L85.45 10.45L85.45 10.45Q85.70 10.63 85.87 10.88L85.87 10.88L85.87 10.88Q86.03 11.14 86.03 11.48L86.03 11.48L86.03 11.48Q86.03 11.66 85.97 11.86L85.97 11.86L85.97 11.86Q85.91 12.07 85.77 12.27L85.77 12.27L85.77 12.27Q85.62 12.48 85.37 12.70L85.37 12.70L85.37 12.70Q85.11 12.91 84.72 13.13L84.72 13.13L84.72 13.13Q84.14 13.44 83.63 13.59L83.63 13.59L83.63 13.59Q83.12 13.74 82.71 13.74L82.71 13.74L82.71 13.74Q82.17 13.74 81.87 13.50L81.87 13.50L81.87 13.50Q81.56 13.26 81.56 12.82L81.56 12.82L81.56 12.82Q81.56 12.49 81.69 12.26L81.69 12.26L81.69 12.26Q81.81 12.02 81.98 11.87L81.98 11.87L81.98 11.87Q82.15 11.72 82.33 11.65L82.33 11.65L82.33 11.65Q82.50 11.57 82.58 11.57L82.58 11.57L82.58 11.57Q82.63 11.57 82.66 11.56L82.66 11.56L82.66 11.56Q82.69 11.55 82.72 11.55L82.72 11.55L82.72 11.55Q82.78 11.55 82.78 11.63L82.78 11.63L82.78 11.70L82.78 11.70Q82.78 11.74 82.80 11.77L82.80 11.77L82.80 11.77Q82.82 11.80 82.82 11.83L82.82 11.83L82.82 11.83Q82.82 11.87 82.73 11.96L82.73 11.96L82.73 11.96Q82.63 12.04 82.51 12.15L82.51 12.15L82.51 12.15Q82.39 12.26 82.29 12.38L82.29 12.38L82.29 12.38Q82.20 12.50 82.20 12.62L82.20 12.62L82.20 12.62Q82.20 12.76 82.41 12.76L82.41 12.76L82.41 12.76Q82.69 12.76 82.99 12.65L82.99 12.65L82.99 12.65Q83.30 12.54 83.59 12.38L83.59 12.38L83.59 12.38Q83.88 12.22 84.14 12.01L84.14 12.01L84.14 12.01Q84.40 11.80 84.60 11.60L84.60 11.60L84.60 11.60Q84.80 11.40 84.92 11.23L84.92 11.23L84.92 11.23Q85.03 11.05 85.03 10.95L85.03 10.95L85.03 10.95Q85.03 10.83 84.89 10.75L84.89 10.75L84.89 10.75Q84.75 10.68 84.51 10.63L84.51 10.63L84.51 10.63Q84.27 10.58 83.95 10.56L83.95 10.56L83.95 10.56Q83.62 10.55 83.27 10.55L83.27 10.55L83.27 10.55Q82.90 10.55 82.66 10.58L82.66 10.58L82.66 10.58Q82.41 10.62 82.36 10.62L82.36 10.62L82.36 10.62Q82.32 10.62 82.23 10.61L82.23 10.61L82.23 10.61Q82.13 10.60 82.04 10.54L82.04 10.54L82.04 10.54Q81.95 10.49 81.88 10.39L81.88 10.39L81.88 10.39Q81.81 10.29 81.81 10.10L81.81 10.10L81.81 10.10Q81.81 9.97 81.87 9.80L81.87 9.80L81.87 9.80Q81.93 9.64 82.08 9.45L82.08 9.45L82.08 9.45Q82.22 9.26 82.48 9.04L82.48 9.04L82.48 9.04Q82.74 8.83 83.13 8.59L83.13 8.59L83.13 8.59Q83.55 8.33 83.91 8.17L83.91 8.17L83.91 8.17Q84.28 8.01 84.58 7.92L84.58 7.92L84.58 7.92Q84.88 7.83 85.10 7.80L85.10 7.80L85.10 7.80Q85.33 7.77 85.46 7.77L85.46 7.77L85.46 7.77Q85.76 7.77 85.91 7.85L85.91 7.85L85.91 7.85Q86.06 7.93 86.14 8.13Z"></path></g><!----><g data-v-d3f97b9e="" id="38609244-0370-44ee-94e7-53e14e490aa2" transform="matrix(1.4999995231629935,0,0,1.4999995231629935,0.025016592810239047,0)" stroke="none" fill="#EFB8D2"><g fill-rule="evenodd"><path d="M5 6a1 1 0 1 0 0-2 1 1 0 0 0 0 2M8 55a1 1 0 1 0 0 2 1 1 0 0 0 0-2M3 48a1 1 0 1 0 0 2 1 1 0 0 0 0-2M14 3a1 1 0 1 0 0-2 1 1 0 0 0 0 2M54 6a1 1 0 1 0 0-2 1 1 0 0 0 0 2M42.618 30a1 1 0 0 1 1-1h16.357a29.828 29.828 0 0 0-1.695-9H32.263a1 1 0 1 1 0-2h25.224a29.825 29.825 0 0 0-2.129-4H43a1 1 0 0 1 0-2h10.984C48.505 4.718 39.794 0 30 0 17.723 0 7.151 7.416 2.513 18h23.148a1 1 0 0 1 0 2H1.72a29.828 29.828 0 0 0-1.695 9h9.712a1 1 0 1 1 0 2H.025a29.8 29.8 0 0 0 2.073 10h21.845a1 1 0 0 1 0 2H2.966a30.162 30.162 0 0 0 6.666 9h24.174a1 1 0 0 1 0 2H12.021A29.84 29.84 0 0 0 30 60a29.84 29.84 0 0 0 17.979-6h-7.776a1 1 0 0 1 0-2h10.165a30.162 30.162 0 0 0 6.666-9h-26.86a1 1 0 0 1 0-2h27.728a29.8 29.8 0 0 0 2.073-10H43.618a1 1 0 0 1-1-1zM34.567 6H42.9a1 1 0 1 1 0 2h-8.333a1 1 0 0 1 0-2zM16.206 7a1 1 0 0 1 1-1h10.417a1 1 0 0 1 0 2H17.206a1 1 0 0 1-1-1zM24 14a1 1 0 0 1 0-2h10a1 1 0 0 1 0 2H24zm1 9h10a1 1 0 0 1 0 2H25a1 1 0 0 1 0-2zM6 25a1 1 0 0 1 0-2h10a1 1 0 0 1 0 2H6zm9.349 5a1 1 0 0 1 1-1h20.277a1 1 0 0 1 0 2H16.349a1 1 0 0 1-1-1zm21.928 16a1 1 0 0 1 0 2H17a1 1 0 0 1 0-2h20.277zM44 36a1 1 0 0 1-1 1H22.723a1 1 0 0 1 0-2H43a1 1 0 0 1 1 1z"></path></g></g><!----></svg>